<svg xmlns="http://www.w3.org/2000/svg" xmlns:xlink="http://www.w3.org/1999/xlink" width="150" height="150" viewBox="0 0 150 150">
  <defs>
    <clipPath id="clip-path">
      <rect id="長方形_1247" data-name="長方形 1247" width="66.085" height="114.464" fill="none"/>
    </clipPath>
  </defs>
  <g id="グループ_1359" data-name="グループ 1359" transform="translate(-565 -1611)">
    <circle id="楕円形_2" data-name="楕円形 2" cx="75" cy="75" r="75" transform="translate(565 1611)" fill="#fff"/>
    <g id="アートワーク_5" data-name="アートワーク 5" transform="translate(640.042 1687.232)">
      <g id="グループ_1350" data-name="グループ 1350" transform="translate(-33.043 -57.232)" clip-path="url(#clip-path)">
        <path id="パス_925" data-name="パス 925" d="M89.895,87.825c-3.4-3.623-7.465-5.489-11.362-7.3l-2.141-1.043A24.59,24.59,0,0,0,79.3,67.352a1.181,1.181,0,1,0-2.36.055,22.175,22.175,0,0,1-2.69,11.033l-1.208-.714a1.153,1.153,0,0,0-1.7.6l-6.7,19.1a1.163,1.163,0,1,0,2.2.768L73.1,80.415c1.482.823,3.019,1.482,4.5,2.2,3.842,1.811,7.52,3.458,10.648,6.751,4.775,5.159,4.72,14.875,4.665,22.669v1.153a1.153,1.153,0,0,0,1.153,1.153h0a1.153,1.153,0,0,0,1.153-1.153V112.03c.055-8.233.055-18.442-5.324-24.261" transform="translate(-29.133 -29.863)" fill="#2a2a2a"/>
        <path id="パス_926" data-name="パス 926" d="M16.521,53.183a1.153,1.153,0,0,0,.6-.274l.933-.439c1.427-.659,2.909-1.372,4.391-2.141l6.093,17.454a1.163,1.163,0,1,0,2.2-.768L26.621,55.159a1.153,1.153,0,0,0,.878.494,6.916,6.916,0,0,0,4.007-.933,6.806,6.806,0,0,0,1.811-1.592,10.868,10.868,0,0,0,5.1,2.854H38.7a1.161,1.161,0,0,0,.274-2.305,8.508,8.508,0,0,1-4.94-3.184,1.153,1.153,0,0,0-1.976.22,4.5,4.5,0,0,1-4.446,2.635,1.153,1.153,0,0,0-1.262,1.043,1.208,1.208,0,0,0,0,.165l-2.2-6.312a1.153,1.153,0,0,0-1.7-.6l-3.074,1.647a34.963,34.963,0,0,0,3.074-7.3c3.019,4.281,7.3,6.751,10.813,6.751,5.653,0,11.746-5.818,13.887-13.118a5.214,5.214,0,0,0,3.568-2.086c1.921-2.58,1.262-5.763.659-7.41s-3.293-2.854-4.611-2.8a1.18,1.18,0,1,0,.055,2.36h.055s1.866-.055,2.305,1.262.988,3.513-.329,5.269a2.909,2.909,0,0,1-2.525,1.208,1.153,1.153,0,0,0-1.208.878c-1.482,5.708-6.587,12.02-11.856,12.02-4.336,0-10.154-4.995-11.911-12.514a1.186,1.186,0,0,0-1.921-.6,2.909,2.909,0,0,1-1.976-1.153c-1.262-1.7-.768-4.007-.329-5.269A1.756,1.756,0,0,1,18.5,25.629a1.164,1.164,0,1,0-.329-2.305,22.943,22.943,0,0,1-.494-3.842v-.22a15.467,15.467,0,0,1,12.9-16.686c6.641-1.153,14,1.647,16.686,10.484h0a23.6,23.6,0,0,1,1.592,7.629,1.154,1.154,0,1,0,2.305-.11A25.852,25.852,0,0,0,49.4,12.291C46.326,2.192,37.543-1.047,30.134.271a17.954,17.954,0,0,0-14.82,19.211v.274a22.669,22.669,0,0,0,.714,4.611,3.9,3.9,0,0,0-1.1,1.647c-.6,1.647-1.317,4.83.659,7.41a5.214,5.214,0,0,0,3.787,2.086,21.681,21.681,0,0,0,1.317,3.348c-.6,4.556-3.4,9.441-5.1,12.13A33.2,33.2,0,0,0,5.324,57.9C-.055,63.776,0,73.985,0,82.164v.988A1.153,1.153,0,0,0,1.153,84.3h0a1.153,1.153,0,0,0,1.153-1.153v-.988c0-7.794-.055-17.509,4.665-22.669,2.744-2.964,6.038-4.665,9.5-6.367" transform="translate(0 0.004)" fill="#2a2a2a"/>
        <path id="パス_927" data-name="パス 927" d="M54.7,21.935a1.153,1.153,0,0,0-1.866-.165C50.528,24.4,45.753,26,41.527,27.424c-1.811.6-3.513,1.208-4.94,1.811a1.153,1.153,0,0,0,.494,2.25l.439-.11c1.317-.6,3.019-1.153,4.775-1.756,3.952-1.317,8.4-2.8,11.252-5.269a21.79,21.79,0,0,0,8.563,6.477,1.179,1.179,0,0,0,.988-2.141c-3.952-1.811-6.751-4.062-8.343-6.751" transform="translate(-16.113 -9.64)" fill="#2a2a2a"/>
        <path id="パス_928" data-name="パス 928" d="M87.512,166.8a7.465,7.465,0,0,0-2.086-1.592,2.487,2.487,0,0,0-3.184.494l-1.317,1.262-.714.714L66.49,180.851h-.055l-.11.11H66.27v.165h0l-2.141,5.763a1.427,1.427,0,0,0,.11,1.208h0l.11.22H64.4a1.427,1.427,0,0,0,.714.384h.714l5.873-1.427h.274l.22-.165h0l4.281-4.062,1.427-1.317,3.238-3.074,4.5-4.336,1.866-1.811.274-.274a2.8,2.8,0,0,0,1.208-2.36,2.579,2.579,0,0,0-.055-.384,5.489,5.489,0,0,0-1.427-2.58M68.685,185.791l-1.262-1.482.22-.6,1.756,1.921ZM86.3,170.477l-.329.329-1.866,1.811-4.5,4.336-3.184,3.074L75,181.345l-3.458,3.293-2.69-2.964,7.355-7.081h0l5.544-5.324.714-.659,1.427-1.372.22-.165.384.165a5.324,5.324,0,0,1,1.427,1.1,3.293,3.293,0,0,1,.878,1.537h0c0,.11-.274.329-.494.549" transform="translate(-28.891 -74.368)" fill="#2a2a2a"/>
        <path id="パス_929" data-name="パス 929" d="M30.131,145.5a1.1,1.1,0,0,0-1.1-1.1H21.9a1.1,1.1,0,0,0-1.1,1.1v31.122a1.1,1.1,0,1,0,2.2,0V146.6h6.038a1.1,1.1,0,0,0,1.1-1.1" transform="translate(-9.383 -65.142)" fill="#2a2a2a"/>
        <path id="パス_930" data-name="パス 930" d="M78.814,160.7a1.1,1.1,0,0,0,1.1-1.1V145.5a1.1,1.1,0,0,0-1.1-1.1H71.9a1.1,1.1,0,0,0,0,2.2h5.818V159.6a1.1,1.1,0,0,0,1.1,1.1" transform="translate(-31.939 -65.142)" fill="#2a2a2a"/>
        <path id="パス_931" data-name="パス 931" d="M58.006,185.8a1.1,1.1,0,0,0-1.1-1.1H45a1.1,1.1,0,1,0,0,2.2H56.908a1.1,1.1,0,0,0,1.1-1.1" transform="translate(-19.804 -83.322)" fill="#2a2a2a"/>
        <path id="パス_932" data-name="パス 932" d="M45,171.7a1.1,1.1,0,1,0,0,2.2H60.037a1.1,1.1,0,1,0,0-2.2Z" transform="translate(-19.804 -77.457)" fill="#2a2a2a"/>
        <path id="パス_933" data-name="パス 933" d="M43.9,160.9A1.1,1.1,0,0,0,45,162H61.684a1.1,1.1,0,1,0,0-2.2H45a1.1,1.1,0,0,0-1.1,1.1" transform="translate(-19.804 -72.089)" fill="#2a2a2a"/>
        <path id="パス_934" data-name="パス 934" d="M54.523,147.255a1.317,1.317,0,0,0,1.372-1.372v-2.305a1.317,1.317,0,0,0-1.427-1.482h-14.6a1.316,1.316,0,0,0-1.372,1.372v.988h0v1.427a1.262,1.262,0,0,0,1.372,1.372Zm-13.887-2.36v-.6H53.7v.768H40.636Z" transform="translate(-17.364 -64.099)" fill="#2a2a2a"/>
        <path id="パス_935" data-name="パス 935" d="M34.371,156.1H31.3a1.1,1.1,0,0,0-1.1,1.1v3.074a1.1,1.1,0,0,0,1.1,1.1h3.074a1.1,1.1,0,0,0,1.1-1.1V157.2a1.1,1.1,0,0,0-1.1-1.1m-1.1,3.074H32.4V158.3h.878Z" transform="translate(-13.624 -70.42)" fill="#2a2a2a"/>
        <path id="パス_936" data-name="パス 936" d="M34.371,169H31.3a1.1,1.1,0,0,0-1.1,1.1v3.074a1.1,1.1,0,0,0,1.1,1.1h3.074a1.1,1.1,0,0,0,1.1-1.1V170.1a1.1,1.1,0,0,0-1.1-1.1m-1.1,3.074H32.4V171.2h.878Z" transform="translate(-13.624 -76.239)" fill="#2a2a2a"/>
        <path id="パス_937" data-name="パス 937" d="M34.371,181.9H31.3a1.1,1.1,0,0,0-1.1,1.1v3.074a1.1,1.1,0,0,0,1.1,1.1h3.074a1.1,1.1,0,0,0,1.1-1.1V183a1.1,1.1,0,0,0-1.1-1.1m-1.1,3.074H32.4V184.1h.878Z" transform="translate(-13.624 -82.059)" fill="#2a2a2a"/>
      </g>
    </g>
  </g>
</svg>
