<svg xmlns="http://www.w3.org/2000/svg" xmlns:xlink="http://www.w3.org/1999/xlink" width="150" height="150" viewBox="0 0 150 150">
  <defs>
    <clipPath id="clip-path">
      <rect id="長方形_1248" data-name="長方形 1248" width="63.098" height="108.515" fill="none"/>
    </clipPath>
  </defs>
  <g id="グループ_1361" data-name="グループ 1361" transform="translate(-970 -1614)">
    <circle id="楕円形_3" data-name="楕円形 3" cx="75" cy="75" r="75" transform="translate(970 1614)" fill="#fff"/>
    <g id="アートワーク_4" data-name="アートワーク 4" transform="translate(1043.551 1688.255)">
      <g id="グループ_1351" data-name="グループ 1351" transform="translate(-31.549 -54.258)" clip-path="url(#clip-path)">
        <path id="パス_938" data-name="パス 938" d="M58,91.313c-3.247-3.471-7.11-5.263-10.806-7a57.642,57.642,0,0,1-5.263-2.631A1.176,1.176,0,0,0,40.2,82.3L38.128,88.29a1.176,1.176,0,0,0-.9-1.008A8.062,8.062,0,0,1,32.585,84.2a1.176,1.176,0,0,0-2.016.224,4.2,4.2,0,0,1-4.2,2.463,1.176,1.176,0,0,0-1.232.9l-2.016-5.711a1.176,1.176,0,0,0-1.736-.616c-1.68.952-3.471,1.792-5.151,2.631-3.863,1.848-7.838,3.7-11.142,7.222C-.056,96.856,0,106.6,0,114.436v.952a1.176,1.176,0,0,0,1.176,1.176h0a1.176,1.176,0,0,0,1.176-1.176v-.952c0-7.39-.056-16.628,4.423-21.5,3.023-3.191,6.607-4.927,10.414-6.718L21.275,84.2,27.1,100.719a1.186,1.186,0,0,0,2.24-.784L25.53,89.018a1.176,1.176,0,0,0,.616.224,6.662,6.662,0,0,0,3.863-.9,6.551,6.551,0,0,0,1.736-1.456,10.47,10.47,0,0,0,4.927,2.687h.28a1.176,1.176,0,0,0,.84-.336l-3.919,11.2a1.186,1.186,0,1,0,2.24.784l5.879-16.8q2.1,1.092,4.2,2.016c3.7,1.68,7.166,3.3,10.078,6.439,4.479,4.871,4.479,14.109,4.423,21.5v1.12a1.176,1.176,0,0,0,1.176,1.176h0a1.176,1.176,0,0,0,1.176-1.176v-1.12c.056-7.838.056-17.58-5.095-23.179" transform="translate(0 -35.774)" fill="#2a2a2a"/>
        <path id="パス_939" data-name="パス 939" d="M26.927,39.778a4.143,4.143,0,0,0-2.911,2.575c-.56,1.624-1.288,4.759.616,7.334a5.151,5.151,0,0,0,3.639,2.072c2.184,7.054,8.006,12.653,13.549,12.653s11.421-5.6,13.493-12.709a5.151,5.151,0,0,0,3.471-2.072c1.9-2.575,1.232-5.655.616-7.334s-3.247-2.855-4.591-2.8a1.288,1.288,0,0,0,.056,2.519h.056c.056,0,1.68,0,2.128,1.12s.952,3.359-.28,4.927a2.687,2.687,0,0,1-2.3,1.12,1.232,1.232,0,0,0-1.344.952c-1.4,5.711-6.271,11.757-11.309,11.757-4.143,0-9.686-4.815-11.365-11.981a1.288,1.288,0,0,0-2.016-.728,2.687,2.687,0,0,1-1.792-1.064c-1.176-1.624-.672-3.751-.28-4.927A1.568,1.568,0,0,1,27.6,42.186a1.288,1.288,0,1,0-.672-2.407" transform="translate(-10.299 -17.383)" fill="#2a2a2a"/>
        <path id="パス_940" data-name="パス 940" d="M33.783,29.386l.5-.112c2.8-1.232,11.142-1.68,17.188-1.4.392,0,1.232.056,2.407-1.736.392,1.792.672,1.96,1.4,2.072a9.742,9.742,0,0,1,2.575.56,1.29,1.29,0,1,0,1.064-2.351,10.022,10.022,0,0,0-2.463-.672c-.224-.9-.5-2.631-.784-4.087A1.288,1.288,0,0,0,54.5,20.6a1.232,1.232,0,0,0-1.288.84A14.78,14.78,0,0,1,51.363,25.3c-6.383-.28-14.781.168-18.084,1.624a1.288,1.288,0,0,0,.5,2.407" transform="translate(-14.356 -9.062)" fill="#2a2a2a"/>
        <path id="パス_941" data-name="パス 941" d="M20.483,43.31A1.176,1.176,0,0,0,21.49,43.2a48.221,48.221,0,0,1,4.423-2.407,1.189,1.189,0,0,0-1.064-2.128L21.49,40.4c-1.9-5.823-1.96-12.093-.224-19.6s4.143-12.317,7.5-14.949A17.244,17.244,0,0,1,45.4,3.447c5.711,2.184,9.518,7.894,11.757,17.524,1.68,7.334,1.568,13.549-.336,19.428l-3.359-1.736A1.189,1.189,0,0,0,52.4,40.791,37.627,37.627,0,0,1,56.819,43.2a1.176,1.176,0,0,0,.616.168h.392a1.176,1.176,0,0,0,.728-.728c2.519-6.774,2.855-13.773.9-22.171C57.043,10,52.731,3.727,46.237,1.207a19.708,19.708,0,0,0-18.924,2.8C22.274,7.982,20.147,15.2,18.971,20.3c-1.96,8.566-1.736,15.677.784,22.283a1.176,1.176,0,0,0,.728.728" transform="translate(-7.773 0.024)" fill="#2a2a2a"/>
        <path id="パス_942" data-name="パス 942" d="M39.006,164.9l-9.238,4.871-.168.168v.336l9.406,4.983,1.008-1.848-6.383-3.3,6.383-3.359Z" transform="translate(-13.028 -72.577)" fill="#2a2a2a"/>
        <path id="パス_943" data-name="パス 943" d="M51.6,175.765h2.072L56.471,163H54.4Z" transform="translate(-22.71 -71.74)" fill="#2a2a2a"/>
        <path id="パス_944" data-name="パス 944" d="M65.5,166.748l6.327,3.359-6.327,3.3.952,1.848,9.406-4.983v-.392L66.452,164.9Z" transform="translate(-28.828 -72.577)" fill="#2a2a2a"/>
        <path id="パス_945" data-name="パス 945" d="M60.118,141.112l-43-.112h0A1.12,1.12,0,0,0,16,142.12V169.5a1.12,1.12,0,1,0,2.24,0V143.24L59,143.351v25.922a1.12,1.12,0,0,0,2.24,0V142.232a1.12,1.12,0,0,0-1.12-1.12" transform="translate(-7.042 -62.058)" fill="#2a2a2a"/>
        <path id="パス_946" data-name="パス 946" d="M59.1,149.6H23.72a1.12,1.12,0,0,0,0,2.24H59.1a1.12,1.12,0,0,0,0-2.24" transform="translate(-9.947 -65.843)" fill="#2a2a2a"/>
      </g>
    </g>
  </g>
</svg>
