<svg xmlns="http://www.w3.org/2000/svg" xmlns:xlink="http://www.w3.org/1999/xlink" width="150" height="150" viewBox="0 0 150 150">
  <defs>
    <clipPath id="clip-path">
      <rect id="長方形_1246" data-name="長方形 1246" width="67.36" height="103.999" fill="none"/>
    </clipPath>
  </defs>
  <g id="グループ_1357" data-name="グループ 1357" transform="translate(-162 -1611)">
    <circle id="楕円形_1" data-name="楕円形 1" cx="75" cy="75" r="75" transform="translate(162 1611)" fill="#fff"/>
    <g id="アートワーク_3" data-name="アートワーク 3" transform="translate(236.69 1686)">
      <g id="グループ_1349" data-name="グループ 1349" transform="translate(-33.68 -51.999)" clip-path="url(#clip-path)">
        <path id="パス_917" data-name="パス 917" d="M95.732,101.416c-3.469-3.692-7.609-5.595-11.581-7.441-1.846-.839-3.8-1.734-5.651-2.8a1.19,1.19,0,0,0-1.175,2.07c1.958,1.119,3.916,2.014,5.818,2.909C87.06,98,90.808,99.682,94,103.038c4.867,5.259,4.811,15.162,4.755,23.106v1.175a1.175,1.175,0,0,0,1.175,1.175h0a1.175,1.175,0,0,0,1.175-1.175v-1.175c.056-8.392.056-18.8-5.427-24.728" transform="translate(-33.799 -40.099)" fill="#2a2a2a"/>
        <path id="パス_918" data-name="パス 918" d="M23.162,93.286c1.958,2.182,8.056,7.721,16.672,4.2a1.179,1.179,0,0,0-.9-2.182c-8.84,3.581-14.322-3.916-14.546-4.2a1.175,1.175,0,0,0-1.567-.336,57.083,57.083,0,0,1-5.539,2.8c-4.14,1.958-8.392,3.972-11.917,7.721C-.056,107.217,0,117.623,0,125.959v1.007a1.175,1.175,0,0,0,1.175,1.175h0a1.175,1.175,0,0,0,1.175-1.175v-1.007c-.056-7.944-.056-17.847,4.755-23.106,3.245-3.413,7.105-5.259,11.189-7.217,1.567-.727,3.245-1.511,4.811-2.406" transform="translate(0 -39.913)" fill="#2a2a2a"/>
        <path id="パス_919" data-name="パス 919" d="M31.375,39.669c2.238,7.5,8.392,13.371,14.21,13.371S57.614,47.11,59.8,39.613a5.371,5.371,0,0,0,3.637-2.126c2.014-2.685,1.287-5.93.671-7.665s-3.413-2.965-4.755-2.909a1.287,1.287,0,1,0,.112,2.518s1.846-.056,2.294,1.231,1.007,3.581-.28,5.259A2.909,2.909,0,0,1,58.957,37.1a1.231,1.231,0,0,0-1.343.951C56.1,44.089,50.957,50.523,45.586,50.523c-4.42,0-10.294-5.091-12.084-12.7a1.287,1.287,0,0,0-2.014-.727,2.909,2.909,0,0,1-1.958-1.175c-1.287-1.734-.727-4.028-.28-5.259a1.734,1.734,0,0,1,1.343-1.119,1.287,1.287,0,0,0-.28-2.462,23.889,23.889,0,0,1-.5-3.86V23A15.724,15.724,0,0,1,42.844,5.989c6.714-1.231,14.21,1.678,16.952,10.63h.056a24,24,0,0,1,1.622,7.721,1.287,1.287,0,1,0,2.518-.112,26.462,26.462,0,0,0-1.79-8.5,20.981,20.981,0,0,0-1.231-3.133,6.266,6.266,0,0,0,3.077-1.958,5.483,5.483,0,0,0,1.119-4.364A7.273,7.273,0,0,0,61.81,1.458c-3.413-2.238-7.049-1.846-9.231.9a6.881,6.881,0,0,0-1.063,1.9A18.127,18.127,0,0,0,42.4,3.528C34.62,4.87,26.508,11.64,27.179,23.221v.28a23.33,23.33,0,0,0,.727,4.7,4.084,4.084,0,0,0-1.119,1.622c-.615,1.734-1.343,4.979.671,7.665a5.371,5.371,0,0,0,3.86,2.182M54.593,3.919c1.343-1.678,3.525-1.846,5.874-.336a4.755,4.755,0,0,1,2.238,3.077,2.965,2.965,0,0,1-.615,2.406,3.972,3.972,0,0,1-2.462,1.343,16.281,16.281,0,0,0-5.762-5.147,4.308,4.308,0,0,1,.727-1.343" transform="translate(-11.514 -0.003)" fill="#2a2a2a"/>
        <path id="パス_920" data-name="パス 920" d="M46.423,38.022l-.951-3.748a1.287,1.287,0,0,0-2.406-.168L41.612,37.8H36.3a1.287,1.287,0,0,0,0,2.518h6.154a1.287,1.287,0,0,0,1.175-.783l.336-.9.224.9a1.287,1.287,0,0,0,1.175.951l10.8.224h4.308a1.287,1.287,0,1,0-.056-2.518c-3.692.112-8.056.056-14.043-.112" transform="translate(-15.541 -14.692)" fill="#2a2a2a"/>
        <path id="パス_921" data-name="パス 921" d="M83.752,159.019a1.119,1.119,0,0,0-1.119-1.119H80.619a1.119,1.119,0,0,0-1.119,1.119v8.448a1.119,1.119,0,0,0,1.119,1.119h1.958a1.119,1.119,0,1,0,0-2.238h-.783v-6.21h.9a1.119,1.119,0,0,0,1.119-1.119" transform="translate(-35.023 -69.56)" fill="#2a2a2a"/>
        <path id="パス_922" data-name="パス 922" d="M57.454,163.468a8.392,8.392,0,0,0-2.07-.28,7.274,7.274,0,0,0-6.658,3.8l-9.791-5.259H45.65a3.357,3.357,0,1,0,0-2.238H38.936l9.9-5.259a7.321,7.321,0,0,0,6.49,3.469H56v3.469a1.119,1.119,0,1,0,2.238,0v-4.755a1.119,1.119,0,0,0-1.4-1.063,6.153,6.153,0,0,1-1.511.168c-2.294,0-4.364-1.287-4.867-3.077a1.119,1.119,0,0,0-1.4-.783h-.056l-.28.112-14.77,7.888h0l-.224.168h0l-.168.224h-.056l-.112.28h0a1.007,1.007,0,0,0,0,.168v.168h0v.168h0l.112.224h.056l.112.168h.056l.168.112h.056l14.714,7.888.168-.336.224.112h.28a1.119,1.119,0,0,0,1.063-.839c.5-1.79,2.574-3.077,4.867-3.077a6.153,6.153,0,0,1,1.511.168,1.126,1.126,0,1,0,.559-2.182M48.671,159.1a1.119,1.119,0,1,1-1.119,1.119,1.119,1.119,0,0,1,1.119-1.119" transform="translate(-14.711 -66.793)" fill="#2a2a2a"/>
        <path id="パス_923" data-name="パス 923" d="M63.886,133.112,20.919,133h0a1.119,1.119,0,0,0-1.119,1.119v27.358a1.119,1.119,0,0,0,2.238,0V135.238l40.729.112v25.9a1.119,1.119,0,0,0,1.119,1.119h0A1.119,1.119,0,0,0,65,161.253V134.231a1.119,1.119,0,0,0-1.119-1.119" transform="translate(-8.723 -58.591)" fill="#2a2a2a"/>
        <path id="パス_924" data-name="パス 924" d="M62.977,141.6H27.619a1.119,1.119,0,0,0,0,2.238H62.977a1.119,1.119,0,0,0,0-2.238" transform="translate(-11.674 -62.38)" fill="#2a2a2a"/>
      </g>
    </g>
  </g>
</svg>
