<svg xmlns="http://www.w3.org/2000/svg" xmlns:xlink="http://www.w3.org/1999/xlink" width="257.682" height="62.24" viewBox="0 0 257.682 62.24">
  <defs>
    <clipPath id="clip-path">
      <rect id="長方形_1241" data-name="長方形 1241" width="257.682" height="62.24" fill="none"/>
    </clipPath>
  </defs>
  <g id="アートワーク_1" data-name="アートワーク 1" transform="translate(128.841 31.12)">
    <g id="グループ_1344" data-name="グループ 1344" transform="translate(-128.841 -31.12)" clip-path="url(#clip-path)">
      <path id="パス_912" data-name="パス 912" d="M256.808,18.337a48.934,48.934,0,0,1-22.052,20.937,45.714,45.714,0,0,1-16.725,4.336,42.99,42.99,0,0,1-7.929-.372c-4.336-.619-14.866-3.593-10.035-11.026.743-1.115-.991-2.106-1.858-1.115-5.2,7.061-12.389,12.76-21.432,13.5-3.717.372-16.353,1.115-15.733-4.955.124-1.363-1.734-1.611-2.354-.619a48.439,48.439,0,0,1-20.813,17.22,43.607,43.607,0,0,0,12.884-18.459,1.2,1.2,0,0,0-1.734-1.363A51.041,51.041,0,0,1,133.418,42a49.059,49.059,0,0,1-8.176.743,33.2,33.2,0,0,1-5.451-.372q-4.955-.5-4.708-7.185a1.239,1.239,0,0,0-1.487-1.858,57.854,57.854,0,0,1-24.034,8.424A53.271,53.271,0,0,1,79.281,42c-4.212-.372-9.787-1.115-8.672-8.3.372-2.23,2.23-4.584,3.469-6.318s-.619-1.858-1.487-1.487C56.238,32.831,38.77,40.14,20.559,38.53,11.02,37.663-1.121,33.079,2.6,21.062c2.6-8.424,9.663-14.99,16.972-19.2A1,1,0,0,0,18.577.125C6.56,7.063-10.536,28.371,8.666,37.415s43.484-.5,61.943-8.3c-3.717,6.938-2.478,13.627,7.309,14.99s23.538-1.363,33.821-6.814c-.248,3.717,4.46,6.938,8.424,7.557,9.168,1.487,18.954-.867,27.255-4.832-3.964,8.8-10.778,15.114-19.45,19.7a1.363,1.363,0,0,0,.991,2.478,55.377,55.377,0,0,0,30.1-19.326c2.354,4.584,11.274,4.708,15.486,4.46,8.92-.372,16.229-4.584,21.928-10.778.619,8.8,22.175,8.8,28,7.681,14.123-2.478,28.741-11.274,33.325-25.52a.5.5,0,0,0-.867-.372" transform="translate(0.006 -0.002)" fill="#2a2a2a"/>
    </g>
  </g>
</svg>
